<?xml version="1.0" encoding="UTF-8" standalone="no"?>
<!-- Created with Inkscape (http://www.inkscape.org/) -->

<svg
   version="1.1"
   id="svg2"
   width="128"
   height="128"
   viewBox="0 0 128 128"
   sodipodi:docname="favicon2.ico.svg"
   inkscape:version="1.1.2 (b8e25be8, 2022-02-05)"
   xmlns:inkscape="http://www.inkscape.org/namespaces/inkscape"
   xmlns:sodipodi="http://sodipodi.sourceforge.net/DTD/sodipodi-0.dtd"
   xmlns="http://www.w3.org/2000/svg"
   xmlns:svg="http://www.w3.org/2000/svg">
  <defs
     id="defs6" />
  <sodipodi:namedview
     id="namedview4"
     pagecolor="#ffffff"
     bordercolor="#111111"
     borderopacity="1"
     inkscape:pageshadow="0"
     inkscape:pageopacity="0"
     inkscape:pagecheckerboard="1"
     showgrid="false"
     inkscape:zoom="4.5"
     inkscape:cx="63.888889"
     inkscape:cy="64"
     inkscape:window-width="1306"
     inkscape:window-height="840"
     inkscape:window-x="0"
     inkscape:window-y="38"
     inkscape:window-maximized="0"
     inkscape:current-layer="g8" />
  <g
     inkscape:groupmode="layer"
     inkscape:label="Image"
     id="g8">
    <rect
       style="fill:#000000"
       id="rect137"
       width="129.33333"
       height="127.55556"
       x="0"
       y="0.44444445" />
    <path
       style="fill:#ffffff"
       id="path660"
       d="m 50.413142,31.677447 c -1.251392,-1.598106 -2.014071,-3.542486 -3.50608,-4.962745 -0.546014,-0.519756 -1.112051,-1.107332 -1.834537,-1.322484 -0.849256,-0.252903 -1.871829,-0.423706 -2.658292,-0.01545 -4.499493,2.335693 -8.588709,5.388661 -12.883064,8.082992 -0.557223,1.480168 -1.288478,2.906046 -1.67167,4.440504 -1.155869,4.628567 -1.683164,11.789637 -2.104576,16.289551 -0.359446,3.838228 -1.509889,16.472172 -1.649957,20.375976 -0.114729,3.197578 0.01798,6.399246 0.02697,9.598869 0.309557,7.333983 0.981059,14.685331 2.43036,21.89106 0.396218,1.96995 1.114242,5.42731 2.355048,7.28439 0.400894,0.6 1.078224,0.95933 1.617336,1.439 6.885499,0.31917 1.395333,0.41542 14.808401,-7.21609 0,0 -12.089624,4.71446 -12.089624,4.71446 v 0 c 10.194728,-5.52549 13.033314,-6.60889 7.914033,-4.52216 -0.732735,-0.12756 -1.536693,-0.0427 -2.198204,-0.38267 -2.0948,-1.07655 -3.711891,-3.59663 -4.772364,-5.50015 -1.974322,-3.543866 -3.562203,-7.755604 -4.535263,-11.657747 -0.665352,-2.668181 -1.014491,-5.4054 -1.521737,-8.108101 -0.188235,-3.095601 -0.519492,-6.185813 -0.564705,-9.286802 -0.152699,-10.472869 1.062087,-20.657065 4.712342,-30.535706 1.026261,-2.777359 2.289962,-5.480236 3.785377,-8.035753 1.058262,-1.808465 2.555035,-3.321693 3.832553,-4.98254 -20.342588,9.657108 -7.2687,2.893204 -5.585009,3.055944 1.901542,0.183796 3.205809,2.737467 3.382834,4.376227 0.05828,0.539553 -0.113077,1.079478 -0.169616,1.619217 0,0 12.879448,-6.63979 12.879448,-6.63979 z" />
    <path
       style="fill:#ffffff"
       id="path875"
       d="m 52.098935,87.84764 c -4.670525,-4.233441 -2.737192,-3.361463 -13.333241,7.726426 -0.690766,0.72283 0.598732,1.911507 0.799285,2.891006 0.110968,0.54197 0.771137,5.544248 0.869225,6.277788 0.337319,0.53506 0.437962,1.87087 1.011955,1.60517 4.718599,-2.18427 9.352229,-4.78473 13.261923,-8.21263 1.322933,-1.159907 1.165927,-3.320204 1.774633,-4.970966 4.179693,-11.334995 1.179198,-2.80241 5.629039,-15.063496 0.984294,-2.712123 1.931482,-5.437569 2.897223,-8.156354 3.148228,-9.148082 6.274439,-18.306621 9.068897,-27.570127 0.172215,-0.342304 0.866176,-1.183937 0.516644,-1.026913 -4.460806,2.003981 -8.942751,4.041231 -13.068964,6.665939 -0.391107,0.248786 0.530491,0.76832 0.709961,1.195695 0.289154,0.688569 0.487441,1.412838 0.687596,2.132335 0.665501,2.392265 0.800696,3.413403 1.267077,5.889849 0.561767,3.546742 1.020518,7.119484 1.265767,10.703783 0.124536,2.48748 0.05158,1.294093 0.212814,3.580527 0.304041,1.47487 0.428707,2.978671 0.657194,4.464289 0.05939,0.386177 0.05713,0.796169 0.21999,1.151326 0.159529,0.347889 0.33591,0.890821 0.718604,0.895484 0.963679,0.01174 1.841692,-0.568711 2.762538,-0.853066 4.286248,-2.717231 8.666291,-5.291869 12.858745,-8.151694 0.954389,-0.651023 1.689568,-1.57618 2.543263,-2.354571 2.619521,-2.388454 5.289581,-4.723462 7.795533,-7.233981 0.682147,-0.68339 1.332857,-1.397453 1.999286,-2.09618 2.918939,-2.990454 4.948328,-6.647114 7.118008,-10.177801 0.84066,-1.276354 1.61899,-2.592044 2.44106,-3.880136 0.20447,-0.320375 0.82439,-1.294996 1.12101,-1.62718 0.12436,-0.139275 0.28637,-0.23968 0.42956,-0.35952 -4.48848,2.178646 -9.210362,3.930694 -13.465432,6.535937 -0.471448,0.288653 0.117251,1.104304 0.08547,1.656186 -0.0661,1.147745 -0.188828,2.294204 -0.378289,3.428132 -0.536473,3.210791 -1.645338,7.494435 -2.416514,10.578292 -0.521389,2.084987 -1.056386,4.166548 -1.584579,6.249823 -0.548803,2.115061 -1.107661,4.22754 -1.646409,6.345185 -0.517574,2.034414 -1.024371,4.071589 -1.522518,6.110847 -1.211953,4.961366 -2.414416,9.938869 -3.080039,15.010124 -0.161522,1.230611 -0.239312,2.470769 -0.358968,3.706152 -0.04707,2.68745 0.18473,5.39012 1.197615,7.9067 0.234031,0.58146 0.494362,1.16245 0.856751,1.67386 0.904961,1.27711 1.396594,1.36423 2.702613,2.09069 0.799872,-0.0564 1.620374,0.02 2.399617,-0.16909 0.882929,-0.21424 1.72818,-0.58978 2.525207,-1.02591 10.724745,-5.86858 9.108105,-4.8318 14.623605,-8.62623 0,0 -11.823817,4.6443 -11.823817,4.6443 v 0 c -4.013106,2.74267 -3.820218,2.54303 6.895937,-3.70801 0.6225,-0.36313 -1.26579,0.69464 -1.929643,0.97513 -0.4946,0.20897 -1.023259,0.32579 -1.534889,0.48869 -0.443727,-0.13679 -0.918149,-0.19821 -1.331181,-0.41037 -0.900537,-0.46256 -1.712054,-1.36081 -2.264354,-2.17668 -1.365494,-2.01714 -1.986444,-4.353121 -2.340578,-6.73536 -0.09889,-1.094381 -0.253949,-2.185134 -0.296684,-3.283142 -0.116343,-2.989176 0.06538,-5.64123 0.40485,-8.628844 0.672741,-5.920718 1.88332,-11.767339 3.494995,-17.501981 0.66558,-2.142116 1.283045,-4.299778 1.996741,-6.426347 1.30859,-3.899152 2.788943,-7.832302 4.562193,-11.550122 0.7,-1.467645 1.48877,-2.892536 2.29766,-4.303101 0.49266,-0.859128 2.56205,-2.752036 1.60407,-2.500869 -4.59491,1.204706 -8.757501,3.68294 -13.136251,5.52441 7.85e-4,0.09033 0.02755,0.184234 0.0024,0.270981 -0.03477,0.119741 -0.617704,1.430058 -0.618314,1.431355 -0.57383,1.219418 -1.235462,2.394733 -1.864224,3.585861 -1.918999,3.309917 -3.921434,6.587063 -6.333207,9.566963 -0.532773,0.622826 -1.048096,1.261014 -1.598319,1.868479 -2.208269,2.438009 -4.618066,4.738188 -7.125295,6.865578 -1.031923,0.875589 -4.435073,3.003346 -3.160425,2.548605 2.796135,-0.997543 5.228926,-2.812859 7.843389,-4.219289 -0.246525,0.384655 -0.425007,0.822633 -0.739576,1.153966 -0.124024,0.130633 -0.366969,0.270444 -0.514096,0.166517 -0.255925,-0.180779 -0.324438,-0.540557 -0.432034,-0.834839 -0.503577,-1.377325 -0.578035,-2.880185 -0.875802,-4.303136 -0.279535,-1.077181 -0.592929,-2.145634 -0.857163,-3.226669 -0.174107,-0.712307 -0.317819,-1.431704 -0.478777,-2.147097 -0.604182,-2.685344 -1.254036,-5.362689 -1.694781,-8.081758 -0.333283,-2.712165 -0.545079,-3.509433 -0.433123,-6.236703 0.03507,-0.854337 0.09859,-1.714068 0.278286,-2.550028 0.122456,-0.569666 1.166417,-1.839274 0.621105,-1.633971 -14.013237,5.275808 -15.747077,2.397708 -12.64318,6.856522 0.07827,0.488139 0.179365,0.973161 0.234804,1.464416 0.565323,5.009382 0.06822,10.624831 -0.862515,15.531815 -0.448591,2.365051 -1.074515,4.692996 -1.611773,7.039494 -0.880043,2.668341 -1.634043,5.381607 -2.640129,8.005023 -2.087851,5.444165 -4.795257,11.215625 -8.082886,16.057331 -1.461331,2.152107 -6.926359,4.41024 -4.915954,6.06109 1.910734,1.56902 12.556355,-4.123743 6.612569,-3.359798 -0.963926,-2.634185 -1.291604,-2.782565 -1.097689,-5.883415 0.07129,-1.139972 1.737035,-3.568211 0.611899,-3.371519 -4.174793,0.729819 -7.669461,3.613024 -11.563385,5.286011 -0.175664,0.07547 0.15189,-0.506018 0.338231,-0.463231 0.239359,0.05496 0.255774,0.419325 0.383661,0.628987 0,0 12.444547,-7.400945 12.444547,-7.400945 z" />
  </g>
</svg>
