<?xml version="1.0" encoding="UTF-8" standalone="no"?>
<!-- Created with Inkscape (http://www.inkscape.org/) -->

<svg
   width="100mm"
   height="50mm"
   viewBox="0 0 100 50"
   version="1.1"
   id="svg5"
   inkscape:version="1.1.2 (b8e25be8, 2022-02-05)"
   sodipodi:docname="logo.svg"
   xmlns:inkscape="http://www.inkscape.org/namespaces/inkscape"
   xmlns:sodipodi="http://sodipodi.sourceforge.net/DTD/sodipodi-0.dtd"
   xmlns="http://www.w3.org/2000/svg"
   xmlns:svg="http://www.w3.org/2000/svg">
  <sodipodi:namedview
     id="namedview7"
     pagecolor="#ffffff"
     bordercolor="#111111"
     borderopacity="1"
     inkscape:pageshadow="0"
     inkscape:pageopacity="0"
     inkscape:pagecheckerboard="1"
     inkscape:document-units="mm"
     showgrid="false"
     inkscape:zoom="1.1639788"
     inkscape:cx="225.51956"
     inkscape:cy="180.41565"
     inkscape:window-width="1312"
     inkscape:window-height="840"
     inkscape:window-x="0"
     inkscape:window-y="38"
     inkscape:window-maximized="0"
     inkscape:current-layer="layer1"
     width="209mm" />
  <defs
     id="defs2">
    <inkscape:perspective
       sodipodi:type="inkscape:persp3d"
       inkscape:vp_x="0 : -98.500004 : 1"
       inkscape:vp_y="0 : 999.99996 : 0"
       inkscape:vp_z="210.00001 : -98.500004 : 1"
       inkscape:persp3d-origin="105.00001 : -148 : 1"
       id="perspective203" />
  </defs>
  <g
     inkscape:label="Layer 1"
     inkscape:groupmode="layer"
     id="layer1">
    <path
       style="fill:#b3b3b3;stroke-width:0.25121"
       id="path14657"
       d="m 7.7847137,12.853179 c -0.032921,0.107696 -0.054668,0.220425 -0.098761,0.323087 -0.2350833,0.547342 -0.6678723,1.306233 -0.9297466,1.785041 -0.2198302,0.401935 -1.3913469,2.524107 -1.5548755,2.862444 -0.3080505,0.63735 -0.5723575,1.299552 -0.8585361,1.949329 -1.0346942,2.866369 -1.6868851,5.90071 -2.0760914,8.955081 -0.2744813,2.154045 -0.457271,4.34782 -0.1700362,6.519165 0.1264897,0.956197 0.438657,1.870618 0.6579853,2.805928 0.9884266,2.138251 0.9940123,2.670389 2.6734861,4.256124 1.8449931,1.742017 4.233012,2.631586 6.5565087,3.204044 0.753785,0.185713 1.522737,0.285308 2.284105,0.427963 1.674085,0.196101 3.38662,0.287816 5.028079,-0.218813 1.560844,-0.481748 3.789726,-2.313207 4.596867,-3.017681 0.266302,-0.232429 0.328081,-0.657807 0.492124,-0.986711 0.237796,-0.847312 0.428918,-1.317112 0.440384,-2.224286 0.02548,-2.016776 -0.622964,-4.061407 -1.254402,-5.917586 C 22.351742,30.416826 20.737748,27.481726 19.266641,24.466471 18.863357,23.63988 18.481248,22.80079 18.088551,21.96795 16.325776,17.946313 14.860247,13.758053 13.88962,9.4154179 13.4612,7.4323238 13.356833,5.3966812 13.374371,3.3653069 c 0.0053,-0.1797835 0.01056,-0.359567 0.01584,-0.5393506 0,0 -3.112505,1.7605398 -3.112505,1.7605398 v 0 c 0.0062,0.1754833 0.01247,0.3509666 0.0187,0.5264499 0.08581,2.0321739 0.170875,4.0835904 0.702736,6.045614 0.350732,1.298215 0.477141,1.826815 0.910205,3.149871 1.038043,3.171322 2.289235,6.254529 3.563178,9.315375 1.757411,3.898357 3.660164,7.720858 5.235541,11.716479 0.719313,2.172462 1.484423,4.560144 0.922444,6.895335 -0.08245,0.342609 -0.220879,0.665549 -0.331318,0.998324 -0.966597,1.613021 -0.827733,1.050983 1.61588,-0.242658 0.33335,-0.176474 -0.653677,0.389123 -1.002693,0.523248 -1.653836,0.635558 -3.413821,0.625806 -5.135172,0.471646 C 16.014366,43.859072 15.243882,43.779313 14.488685,43.604858 12.218281,43.080385 9.8651118,42.209646 8.0511417,40.53935 6.4218013,39.039062 6.3860882,38.496013 5.3952419,36.462711 5.1695023,35.557455 4.8514891,34.674453 4.7180237,33.746943 4.4074943,31.588933 4.573152,29.472188 4.8646448,27.328073 c 0.4205714,-3.093571 1.1780643,-6.138694 2.3435341,-8.989601 1.0620017,-2.20558 0.7070706,-1.570047 1.8065694,-3.50385 0.6201483,-1.090721 1.3563707,-2.155229 1.8621637,-3.322134 0.05461,-0.126 0.07732,-0.266139 0.115973,-0.399208 0,0 -3.2081722,1.739899 -3.2081713,1.739899 z" />
    <text
       xml:space="preserve"
       style="font-style:normal;font-weight:normal;font-size:14.1111px;line-height:1.35;font-family:sans-serif;fill:#800000;fill-opacity:1;stroke:none;stroke-width:0.412804"
       x="4.7597537"
       y="31.777563"
       id="text16787"
       transform="scale(0.8688711,1.1509187)"><tspan
         sodipodi:role="line"
         style="font-style:normal;font-variant:normal;font-weight:bold;font-stretch:normal;font-size:14.1111px;font-family:sans-serif;-inkscape-font-specification:'sans-serif, Bold';font-variant-ligatures:normal;font-variant-caps:normal;font-variant-numeric:normal;font-variant-east-asian:normal;fill:#800000;stroke-width:0.412804"
         x="4.7597537"
         y="31.777563"
         id="tspan16785">BRAINDROPS</tspan></text>
    <circle
       id="path16976"
       style="fill:#b3b3b3;stroke:#000000;stroke-width:0.264583"
       cx="-25.004032"
       cy="31.368698"
       r="0.030277388" />
  </g>
</svg>
