<?xml version="1.0" encoding="UTF-8" standalone="no"?>
<!-- Created with Inkscape (http://www.inkscape.org/) -->

<svg
   width="100mm"
   height="50mm"
   viewBox="0 0 100 50"
   version="1.1"
   id="svg5"
   inkscape:version="1.1.2 (b8e25be8, 2022-02-05)"
   sodipodi:docname="logo.svg"
   xmlns:inkscape="http://www.inkscape.org/namespaces/inkscape"
   xmlns:sodipodi="http://sodipodi.sourceforge.net/DTD/sodipodi-0.dtd"
   xmlns="http://www.w3.org/2000/svg"
   xmlns:svg="http://www.w3.org/2000/svg">
  <sodipodi:namedview
     id="namedview7"
     pagecolor="#ffffff"
     bordercolor="#111111"
     borderopacity="1"
     inkscape:pageshadow="0"
     inkscape:pageopacity="0"
     inkscape:pagecheckerboard="1"
     inkscape:document-units="mm"
     showgrid="false"
     inkscape:zoom="1.1639788"
     inkscape:cx="291.67198"
     inkscape:cy="180.41566"
     inkscape:window-width="1312"
     inkscape:window-height="840"
     inkscape:window-x="0"
     inkscape:window-y="38"
     inkscape:window-maximized="0"
     inkscape:current-layer="layer1"
     width="209mm" />
  <defs
     id="defs2">
    <inkscape:perspective
       sodipodi:type="inkscape:persp3d"
       inkscape:vp_x="0 : -98.500004 : 1"
       inkscape:vp_y="0 : 999.99996 : 0"
       inkscape:vp_z="210.00001 : -98.500004 : 1"
       inkscape:persp3d-origin="105.00001 : -148 : 1"
       id="perspective203" />
  </defs>
  <g
     inkscape:label="Layer 1"
     inkscape:groupmode="layer"
     id="layer1">
    <circle
       id="path16976"
       style="fill:#b3b3b3;stroke:#000000;stroke-width:0.264583"
       cx="-25.004032"
       cy="31.368698"
       r="0.030277388" />
    <path
       style="fill:#b3b3b3;stroke-width:0.237111"
       id="path2022"
       d="m 33.324632,21.987702 c -2.677191,0.189912 -2.68754,0.211069 -6.019079,0.306872 -1.682374,0.04838 -3.365396,0.121729 -5.048288,0.09705 C 18.833602,22.341407 15.151201,22.24214 11.861942,21.103442 10.383967,20.591784 9.0803532,19.67719 7.6895579,18.964066 5.7993348,17.155387 3.8055848,16.00755 3.5458349,13.145247 3.2218251,9.5748323 7.1126393,6.8725322 9.9306606,5.7476493 10.772272,5.4116991 11.717513,5.4367484 12.61094,5.2812971 c 1.737386,-0.3329019 3.457657,-0.7709813 5.212159,-0.9987047 4.885677,-0.6341299 9.699972,-0.4020818 14.484674,0.7555878 3.300029,0.7984502 4.092859,1.2780853 7.093304,2.5664499 2.12799,1.269035 3.16816,1.6458719 4.787228,3.5397629 1.289609,1.508512 2.282016,3.466475 2.799952,5.369954 0.723015,2.657176 0.462821,3.369863 0.294524,6.038242 -0.677569,2.356612 -0.573487,2.985892 -2.203831,4.869369 -0.558439,0.645144 -1.280355,1.130622 -1.926509,1.689162 -0.05598,0.04839 0.226147,-0.180799 0.155487,-0.158273 -4.550585,1.450622 -0.4212,0.527921 -5.451135,1.448403 -3.429336,0.286026 -6.945478,0.176796 -10.166534,-1.14536 -1.146439,-0.47058 -1.41063,-0.706628 -2.36867,-1.346456 -0.447712,-0.401958 -1.610103,-1.261581 -1.27616,-2.030246 0.02992,-0.06888 0.08473,-0.124194 0.127099,-0.186293 0.117681,-0.2788 0.501134,-0.27987 0.664989,-0.500705 0.03794,-0.05113 0.05345,-0.11541 0.08018,-0.173115 0.09483,-0.174839 0.102895,-0.450444 0.301765,-0.544501 0.0252,-0.01191 0.102773,-0.04231 0.07878,-0.02816 -0.989034,0.583339 -1.98344,1.157644 -2.97516,1.736465 1.485508,-0.666495 2.299793,-1.05351 3.259333,-1.882905 0,0 -3.326682,1.307572 -3.326682,1.307572 v 0 c -1.029946,0.594382 -2.734172,0.294522 2.866171,-1.629046 -1.068289,0.616079 -2.656522,0.778607 -3.180129,1.88992 -0.08693,0.184513 -0.135134,0.388302 -0.285699,0.53811 -0.290166,0.20378 -0.557338,0.400783 -0.682706,0.750732 -0.02343,0.09507 -0.06195,0.187684 -0.07034,0.285211 -0.08718,1.014109 1.007708,1.694211 1.691794,2.213233 1.074484,0.61561 1.354706,0.830536 2.606565,1.27991 3.351304,1.202998 6.940851,1.319558 10.46373,1.104163 0.965589,-0.150245 1.947076,-0.22135 2.896767,-0.450734 2.640962,-0.637885 5.006075,-2.04697 7.231897,-3.550319 1.382051,-0.933455 2.602944,-2.472232 3.235453,-4.00187 0.355489,-0.859705 0.46083,-1.801547 0.691244,-2.702319 0.04082,-0.998891 0.185516,-1.998923 0.12247,-2.996672 -0.194229,-3.0739 -1.285105,-6.262161 -3.318225,-8.630539 C 44.865535,7.7745353 43.740316,7.4150015 41.533982,6.188919 38.414703,4.9621426 37.571683,4.501596 34.178568,3.7384726 32.684458,3.4024403 31.174676,3.1161538 29.652,2.949154 24.514574,2.3857055 19.359439,2.8231258 14.330866,3.9532882 11.621523,5.0343995 6.5875529,6.6580721 3.9951221,8.7735303 2.3679874,10.101294 0.89748689,12.166879 1.2490336,14.430683 c 0.4328462,2.787339 2.6708494,4.061648 4.5806831,5.747496 1.4331805,0.70763 2.7836208,1.612998 4.2995453,2.122891 1.634435,0.549754 3.361332,0.80454 5.072034,1.029309 1.752963,0.230322 3.527509,0.257338 5.294114,0.332703 3.312486,0.141318 6.646936,0.01725 9.947955,0.403918 0,0 2.88127,-2.0793 2.88127,-2.0793 z" />
    <path
       style="fill:#b3b3b3;stroke-width:0.237111"
       id="path2024"
       d="m 34.817106,33.59048 c 1.658286,-0.08813 3.324541,0.0059 4.976993,-0.188793 0.354327,-0.04175 0.705037,-0.109638 1.057555,-0.164457 0.862186,-0.170288 1.69746,-0.416831 2.456773,-0.865391 0.245901,-0.145266 2.989606,-1.437278 3.855518,-2.503468 0.105909,-0.130405 0.179092,-0.283973 0.268637,-0.425961 0.194938,-0.564992 0.189497,-1.155355 0.170126,-1.743214 0,0 -3.104932,1.584387 -3.104932,1.584387 v 0 c 0.01808,0.527668 0.02324,1.05169 -0.236601,1.5317 -0.91118,1.18804 -1.840226,1.257979 1.666696,-0.546002 0.236594,-0.121703 -0.443576,0.296036 -0.682261,0.413638 -0.619997,0.305482 -1.09995,0.403528 -1.769331,0.590749 -0.354693,0.06736 -0.706602,0.151286 -1.064081,0.202079 -1.578607,0.224297 -3.178596,0.115162 -4.765231,0.07253 0,0 -2.829861,2.042202 -2.829861,2.042202 z" />
    <path
       style="fill:#b3b3b3;stroke-width:0.237111"
       id="path2026"
       d="m 35.643786,33.210592 c 0.92358,2.136079 1.499002,4.408205 2.056069,6.661363 0.500283,1.893038 0.53282,3.623535 0.272042,5.549461 1.171765,-0.26769 -0.764302,1.165972 -0.466908,0.965457 0.913549,-0.615947 1.975892,-1.07262 2.710173,-1.891667 0.175571,-0.195843 -0.294694,-0.436971 -0.411874,-0.671959 -0.150948,-0.3027 -0.901754,-2.16486 -0.983969,-2.366617 -0.894966,-2.286513 -2.135791,-4.409763 -3.514826,-6.436753 -0.832495,-1.153159 -1.591575,-2.354679 -2.409557,-3.517587 -0.422959,-0.628929 -0.92928,-1.19284 -1.39365,-1.790003 0,0 -2.959098,1.752547 -2.959098,1.752547 v 0 c 0.470578,0.589143 0.977705,1.147952 1.432692,1.749643 0.844317,1.147962 1.529953,2.4008 2.440845,3.501015 1.487549,1.920519 2.793425,3.984106 3.620101,6.277578 0.289626,0.825765 0.543123,1.664542 0.860631,2.480132 0.112317,0.28851 0.07345,0.883932 0.382592,0.846603 0.781982,-0.09443 3.239286,-0.333905 3.583934,-1.67658 0.05865,-0.228457 0.07431,-0.46572 0.111467,-0.69858 0.182728,-1.890017 0.180467,-3.799012 -0.387416,-5.63257 -0.695643,-2.248103 -1.383699,-4.49934 -1.851888,-6.807436 0,0 -3.09136,1.705953 -3.09136,1.705953 z" />
    <text
       xml:space="preserve"
       style="font-style:normal;font-weight:normal;font-size:14.1111px;line-height:1.35;font-family:sans-serif;fill:#800000;fill-opacity:1;stroke:none;stroke-width:0.412804"
       x="49.495861"
       y="15.779854"
       id="text2146"
       transform="scale(0.8688711,1.1509187)"><tspan
         sodipodi:role="line"
         style="font-style:normal;font-variant:normal;font-weight:bold;font-stretch:normal;font-size:14.1111px;font-family:sans-serif;-inkscape-font-specification:'sans-serif, Bold';font-variant-ligatures:normal;font-variant-caps:normal;font-variant-numeric:normal;font-variant-east-asian:normal;fill:#800000;stroke-width:0.412804"
         x="49.495861"
         y="15.779854"
         id="tspan2144">Do you </tspan><tspan
         sodipodi:role="line"
         style="font-style:normal;font-variant:normal;font-weight:bold;font-stretch:normal;font-size:14.1111px;font-family:sans-serif;-inkscape-font-specification:'sans-serif, Bold';font-variant-ligatures:normal;font-variant-caps:normal;font-variant-numeric:normal;font-variant-east-asian:normal;fill:#800000;stroke-width:0.412804"
         x="49.495861"
         y="34.829842"
         id="tspan8457">MIND?</tspan></text>
    <text
       xml:space="preserve"
       style="font-style:normal;font-weight:normal;font-size:14.1111px;line-height:1.35;font-family:sans-serif;fill:#800000;fill-opacity:1;stroke:none;stroke-width:0.412804"
       x="7.2775812"
       y="28.629009"
       id="text2146-0"
       transform="scale(0.8688711,1.1509187)"><tspan
         sodipodi:role="line"
         style="font-style:normal;font-variant:normal;font-weight:bold;font-stretch:normal;font-size:14.1111px;font-family:sans-serif;-inkscape-font-specification:'sans-serif, Bold';font-variant-ligatures:normal;font-variant-caps:normal;font-variant-numeric:normal;font-variant-east-asian:normal;fill:#800000;stroke-width:0.412804"
         x="7.2775812"
         y="28.629009"
         id="tspan2144-3" /></text>
  </g>
</svg>
